<svg id="Layer_1" data-name="Layer 1" xmlns="http://www.w3.org/2000/svg" width="650.79" height="727.35" viewBox="0 0 650.79 727.35"><defs><style>.cls-1{fill:#fff;}.cls-2{fill:#f1b82d;}</style></defs><title>mizzou_logo_university_of_missouri_freelogovectors.net</title><path d="M375,729.11c-293,0-315.82-126.53-315.82-165.38V20.89H340.55L375,98.61l34.45-77.72H690.82V563.73C690.82,602.58,668.05,729.11,375,729.11Z" transform="translate(-49.61 -11.32)"/><path class="cls-1" d="M681.25,30.46V563.73c0,35.6-19.9,155.81-306.25,155.81S68.75,599.33,68.75,563.73V30.46H334.42L375,122.15l40.58-91.69H681.25m19.14-19.14H403.14l-5,11.3L375,75.06,351.84,22.81l-5-11.49H49.61V563.73c0,41.15,23.54,174.95,325.39,174.95,126.9,0,218.78-23.16,273-69.1,45.75-38.67,52.44-82.88,52.44-105.85V11.32Z" transform="translate(-49.61 -11.32)"/><path class="cls-2" d="M470.7,516.83V465.92c0-10.34-25.45-18.38-38.28-25.27V394.14H604.69v46.13c-12.82,6.89-19.14,14.93-19.14,25.27v45.55C585,544.4,597.23,643,374.81,643,152.58,643,165,544.4,164.45,511.09V465.54c0-10.34-6.32-18.38-19.14-25.27V394.14H317.58v46.32c-12.83,6.89-38.28,14.93-38.28,25.27v50.91c.57,8,3.44,49.58,95.51,49.58S470.13,524.87,470.7,516.83Z" transform="translate(-49.61 -11.32)"/><path class="cls-2" d="M374.81,246.37,451.56,107H604.69v38.28c-12.82,6.89-19.14,8.8-19.14,19.14V279.3c0,10.33,6.32,18.37,19.14,25.26v32.16H451.56V304.18c12.83-6.89,38.29-14.93,38.29-25.27v-82.3L392.61,336.72H357.2L260.15,196.61V279.1c0,10.34,25.46,18.38,38.29,25.27v32.35H145.31V304.56c12.82-6.89,19.14-14.93,19.14-25.26V164.45c0-10.34-6.32-12.25-19.14-19.14V107H298.44l76.37,139.34" transform="translate(-49.61 -11.32)"/></svg>